<svg id="Capa_1" data-name="Capa 1" xmlns="http://www.w3.org/2000/svg" viewBox="0 0 40 40">
  <!-- Define gradient background -->
  <defs>
    <linearGradient id="bgGradient" x1="0%" y1="0%" x2="100%" y2="100%">
      <stop offset="0%" style="stop-color:#C2E0FF;stop-opacity:1" />
      <stop offset="100%" style="stop-color:#FFDCB9;stop-opacity:1" />
    </linearGradient>
  </defs>
  <rect width="100%" height="100%" fill="url(#bgGradient)" />
  
  <!-- Original SVG content -->
  <defs>
    <style>
      .cls-1 {
        stroke-width: 0px;
      }

      .cls-1, .cls-2 {
        fill: #000;
      }

      .cls-2 {
        font-family: Poppins-SemiBold, 'Poppins SemiBold';
        font-size: 5px;
        font-weight: 600;
      }
    </style>
  </defs>
  <text class="cls-2" transform="translate(5.75 32.64)"><tspan x="0" y="0">QUICK OPEN</tspan></text>
  <g>
    <path class="cls-1" d="M11.6,20.89l9.07-6.01.24-.16.14.28.5.9,11.38-5.7,3-1.49-2.69,1.95-10.58,7.73-.26.2-.14-.28-.93-1.68-9.45,4.72-4.14,2.09,3.85-2.56ZM20.72,15.54l-4.96,3.26,5.31-2.64-.36-.62ZM21.84,16.4l.75,1.35,7.6-5.55-8.35,4.2Z"/>
    <path class="cls-1" d="M21.32,24.55c-3.88,1.14-7.97-1.09-9.11-4.97s1.09-7.97,4.98-9.11,7.97,1.09,9.11,4.98-1.1,7.97-4.98,9.1ZM17.37,11.08c-3.55,1.04-5.58,4.77-4.54,8.32s4.77,5.59,8.32,4.55,5.58-4.77,4.54-8.32-4.77-5.58-8.32-4.54Z"/>
  </g>
</svg>

